<svg width="136" height="30" viewBox="0 0 136 30" fill="none" xmlns="http://www.w3.org/2000/svg">
<path d="M15.3 15.876C16.764 16.188 17.94 16.92 18.828 18.072C19.716 19.2 20.16 20.496 20.16 21.96C20.16 24.072 19.416 25.752 17.928 27C16.464 28.224 14.412 28.836 11.772 28.836H-2.16067e-06V3.564H11.376C13.944 3.564 15.948 4.152 17.388 5.328C18.852 6.504 19.584 8.1 19.584 10.116C19.584 11.604 19.188 12.84 18.396 13.824C17.628 14.808 16.596 15.492 15.3 15.876ZM6.156 13.788H10.188C11.196 13.788 11.964 13.572 12.492 13.14C13.044 12.684 13.32 12.024 13.32 11.16C13.32 10.296 13.044 9.636 12.492 9.18C11.964 8.724 11.196 8.496 10.188 8.496H6.156V13.788ZM10.692 23.868C11.724 23.868 12.516 23.64 13.068 23.184C13.644 22.704 13.932 22.02 13.932 21.132C13.932 20.244 13.632 19.548 13.032 19.044C12.456 18.54 11.652 18.288 10.62 18.288H6.156V23.868H10.692ZM26.8265 6.66C25.7465 6.66 24.8585 6.348 24.1625 5.724C23.4905 5.076 23.1545 4.284 23.1545 3.348C23.1545 2.388 23.4905 1.596 24.1625 0.971997C24.8585 0.323997 25.7465 -3.57628e-06 26.8265 -3.57628e-06C27.8825 -3.57628e-06 28.7465 0.323997 29.4185 0.971997C30.1145 1.596 30.4625 2.388 30.4625 3.348C30.4625 4.284 30.1145 5.076 29.4185 5.724C28.7465 6.348 27.8825 6.66 26.8265 6.66ZM29.8865 8.748V28.836H23.7305V8.748H29.8865ZM33.1237 18.756C33.1237 16.692 33.5077 14.88 34.2757 13.32C35.0677 11.76 36.1357 10.56 37.4797 9.72C38.8237 8.88 40.3237 8.46 41.9797 8.46C43.3957 8.46 44.6317 8.748 45.6877 9.324C46.7677 9.9 47.5957 10.656 48.1717 11.592V8.748H54.3277V28.836H48.1717V25.992C47.5717 26.928 46.7317 27.684 45.6517 28.26C44.5957 28.836 43.3597 29.124 41.9437 29.124C40.3117 29.124 38.8237 28.704 37.4797 27.864C36.1357 27 35.0677 25.788 34.2757 24.228C33.5077 22.644 33.1237 20.82 33.1237 18.756ZM48.1717 18.792C48.1717 17.256 47.7397 16.044 46.8757 15.156C46.0357 14.268 45.0037 13.824 43.7797 13.824C42.5557 13.824 41.5117 14.268 40.6477 15.156C39.8077 16.02 39.3877 17.22 39.3877 18.756C39.3877 20.292 39.8077 21.516 40.6477 22.428C41.5117 23.316 42.5557 23.76 43.7797 23.76C45.0037 23.76 46.0357 23.316 46.8757 22.428C47.7397 21.54 48.1717 20.328 48.1717 18.792ZM71.0212 8.532C73.3732 8.532 75.2452 9.3 76.6372 10.836C78.0532 12.348 78.7612 14.436 78.7612 17.1V28.836H72.6412V17.928C72.6412 16.584 72.2932 15.54 71.5972 14.796C70.9012 14.052 69.9652 13.68 68.7892 13.68C67.6132 13.68 66.6772 14.052 65.9812 14.796C65.2852 15.54 64.9372 16.584 64.9372 17.928V28.836H58.7812V8.748H64.9372V11.412C65.5612 10.524 66.4012 9.828 67.4572 9.324C68.5132 8.796 69.7012 8.532 71.0212 8.532ZM81.8151 18.792C81.8151 16.704 82.2351 14.88 83.0751 13.32C83.9391 11.76 85.1271 10.56 86.6391 9.72C88.1751 8.88 89.9271 8.46 91.8951 8.46C94.4151 8.46 96.5151 9.12 98.1951 10.44C99.8991 11.76 101.015 13.62 101.543 16.02H94.9911C94.4391 14.484 93.3711 13.716 91.7871 13.716C90.6591 13.716 89.7591 14.16 89.0871 15.048C88.4151 15.912 88.0791 17.16 88.0791 18.792C88.0791 20.424 88.4151 21.684 89.0871 22.572C89.7591 23.436 90.6591 23.868 91.7871 23.868C93.3711 23.868 94.4391 23.1 94.9911 21.564H101.543C101.015 23.916 99.8991 25.764 98.1951 27.108C96.4911 28.452 94.3911 29.124 91.8951 29.124C89.9271 29.124 88.1751 28.704 86.6391 27.864C85.1271 27.024 83.9391 25.824 83.0751 24.264C82.2351 22.704 81.8151 20.88 81.8151 18.792ZM103.612 18.756C103.612 16.692 103.996 14.88 104.764 13.32C105.556 11.76 106.624 10.56 107.968 9.72C109.312 8.88 110.812 8.46 112.468 8.46C113.884 8.46 115.12 8.748 116.176 9.324C117.256 9.9 118.084 10.656 118.66 11.592V8.748H124.816V28.836H118.66V25.992C118.06 26.928 117.22 27.684 116.14 28.26C115.084 28.836 113.848 29.124 112.432 29.124C110.8 29.124 109.312 28.704 107.968 27.864C106.624 27 105.556 25.788 104.764 24.228C103.996 22.644 103.612 20.82 103.612 18.756ZM118.66 18.792C118.66 17.256 118.228 16.044 117.364 15.156C116.524 14.268 115.492 13.824 114.268 13.824C113.044 13.824 112 14.268 111.136 15.156C110.296 16.02 109.876 17.22 109.876 18.756C109.876 20.292 110.296 21.516 111.136 22.428C112 23.316 113.044 23.76 114.268 23.76C115.492 23.76 116.524 23.316 117.364 22.428C118.228 21.54 118.66 20.328 118.66 18.792ZM132.15 29.124C131.07 29.124 130.182 28.812 129.486 28.188C128.814 27.54 128.478 26.748 128.478 25.812C128.478 24.852 128.814 24.048 129.486 23.4C130.182 22.752 131.07 22.428 132.15 22.428C133.206 22.428 134.07 22.752 134.742 23.4C135.438 24.048 135.786 24.852 135.786 25.812C135.786 26.748 135.438 27.54 134.742 28.188C134.07 28.812 133.206 29.124 132.15 29.124Z" fill="black"/>
</svg>
