<svg width="16" height="24" viewBox="0 0 16 24" fill="none" xmlns="http://www.w3.org/2000/svg">
<path d="M1.69604 18.7841C3.74404 17.0774 5.37604 15.6588 6.59204 14.5281C7.80804 13.3761 8.82137 12.1814 9.63204 10.9441C10.4427 9.70675 10.848 8.49075 10.848 7.29609C10.848 6.20809 10.592 5.35475 10.08 4.73609C9.56804 4.11742 8.77871 3.80809 7.71204 3.80809C6.64537 3.80809 5.82404 4.17075 5.24804 4.89609C4.67204 5.60009 4.37337 6.57075 4.35204 7.80809H4.11272e-05C0.0853744 5.24809 0.842708 3.30675 2.27204 1.98409C3.72271 0.66142 5.55737 8.58307e-05 7.77604 8.58307e-05C10.208 8.58307e-05 12.0747 0.650753 13.376 1.95209C14.6774 3.23209 15.328 4.92809 15.328 7.04009C15.328 8.70409 14.88 10.2934 13.984 11.8081C13.088 13.3228 12.064 14.6454 10.912 15.7761C9.76004 16.8854 8.25604 18.2294 6.40004 19.8081H15.84V23.5201H0.0320411V20.1921L1.69604 18.7841Z" fill="#1447E6"/>
</svg>
