<svg width="603" height="123" viewBox="0 0 603 123" fill="none" xmlns="http://www.w3.org/2000/svg">
<g clip-path="url(#clip0_2044_86)">
<path d="M205.683 51.8788C205.683 47.0922 206.724 42.8348 208.806 39.1067C210.887 35.3326 213.779 32.4099 217.48 30.3388C221.227 28.2216 225.46 27.163 230.179 27.163C235.961 27.163 240.911 28.6818 245.029 31.7195C249.146 34.7572 251.899 38.8996 253.286 44.1465H240.24C239.269 42.1214 237.881 40.5795 236.077 39.5209C234.319 38.4623 232.307 37.933 230.04 37.933C226.385 37.933 223.424 39.1987 221.157 41.7301C218.891 44.2616 217.757 47.6445 217.757 51.8788C217.757 56.1132 218.891 59.4961 221.157 62.0275C223.424 64.5589 226.385 65.8247 230.04 65.8247C232.307 65.8247 234.319 65.2954 236.077 64.2368C237.881 63.1782 239.269 61.6363 240.24 59.6112H253.286C251.899 64.8581 249.146 69.0004 245.029 72.0381C240.911 75.0298 235.961 76.5257 230.179 76.5257C225.46 76.5257 221.227 75.4901 217.48 73.4189C213.779 71.3017 210.887 68.3791 208.806 64.651C206.724 60.9229 205.683 56.6655 205.683 51.8788ZM283.592 76.6637C279.012 76.6637 274.802 75.6051 270.962 73.488C267.169 71.3708 264.139 68.4251 261.872 64.651C259.651 60.8309 258.541 56.5505 258.541 51.8098C258.541 47.0691 259.651 42.8118 261.872 39.0376C264.139 35.2635 267.169 32.3179 270.962 30.2007C274.802 28.0835 279.012 27.0249 283.592 27.0249C288.172 27.0249 292.359 28.0835 296.152 30.2007C299.992 32.3179 302.999 35.2635 305.173 39.0376C307.394 42.8118 308.504 47.0691 308.504 51.8098C308.504 56.5505 307.394 60.8309 305.173 64.651C302.953 68.4251 299.945 71.3708 296.152 73.488C292.359 75.6051 288.172 76.6637 283.592 76.6637ZM283.592 65.8937C287.478 65.8937 290.577 64.605 292.891 62.0275C295.25 59.4501 296.43 56.0442 296.43 51.8098C296.43 47.5294 295.25 44.1235 292.891 41.5921C290.577 39.0146 287.478 37.7259 283.592 37.7259C279.66 37.7259 276.514 38.9916 274.154 41.523C271.841 44.0545 270.685 47.4834 270.685 51.8098C270.685 56.0902 271.841 59.5191 274.154 62.0966C276.514 64.628 279.66 65.8937 283.592 65.8937ZM358.684 76.1805H346.818L326.971 46.2867V76.1805H315.105V27.7153H326.971L346.818 57.7471V27.7153H358.684V76.1805ZM402.329 27.7153V37.1736H389.422V76.1805H377.555V37.1736H364.648V27.7153H402.329ZM433.126 76.1805L422.995 57.8852H420.15V76.1805H408.284V27.7153H428.199C432.039 27.7153 435.301 28.3827 437.984 29.7174C440.713 31.0522 442.749 32.8932 444.09 35.2405C445.432 37.5418 446.103 40.1192 446.103 42.9728C446.103 46.1947 445.178 49.0713 443.327 51.6027C441.523 54.1341 438.84 55.9291 435.278 56.9877L446.519 76.1805H433.126ZM420.15 49.5315H427.505C429.68 49.5315 431.299 49.0022 432.363 47.9436C433.473 46.885 434.028 45.3892 434.028 43.4561C434.028 41.6151 433.473 40.1653 432.363 39.1067C431.299 38.0481 429.68 37.5188 427.505 37.5188H420.15V49.5315ZM483.876 67.6197H465.695L462.781 76.1805H450.36L467.985 27.7153H481.725L499.351 76.1805H486.791L483.876 67.6197ZM480.823 58.5065L474.786 40.7636L468.818 58.5065H480.823ZM502.703 51.8788C502.703 47.0922 503.744 42.8348 505.826 39.1067C507.908 35.3326 510.799 32.4099 514.5 30.3388C518.247 28.2216 522.48 27.163 527.199 27.163C532.982 27.163 537.932 28.6818 542.049 31.7195C546.166 34.7572 548.919 38.8996 550.307 44.1465H537.261C536.29 42.1214 534.902 40.5795 533.098 39.5209C531.34 38.4623 529.327 37.933 527.06 37.933C523.406 37.933 520.445 39.1987 518.178 41.7301C515.911 44.2616 514.778 47.6445 514.778 51.8788C514.778 56.1132 515.911 59.4961 518.178 62.0275C520.445 64.5589 523.406 65.8247 527.06 65.8247C529.327 65.8247 531.34 65.2954 533.098 64.2368C534.902 63.1782 536.29 61.6363 537.261 59.6112H550.307C548.919 64.8581 546.166 69.0004 542.049 72.0381C537.932 75.0298 532.982 76.5257 527.199 76.5257C522.48 76.5257 518.247 75.4901 514.5 73.4189C510.799 71.3017 507.908 68.3791 505.826 64.651C503.744 60.9229 502.703 56.6655 502.703 51.8788ZM585.816 76.1805L569.439 54.7785V76.1805H557.573V27.7153H569.439V48.9792L585.677 27.7153H599.625L580.75 51.4646L600.319 76.1805H585.816Z" fill="#1B1B1B"/>
<mask id="mask0_2044_86" style="mask-type:alpha" maskUnits="userSpaceOnUse" x="0" y="11" width="174" height="82">
<path d="M124.429 73.0065H132.405L124.429 63.4839V73.0065Z" fill="white"/>
<path d="M63.8096 51.5806C63.8096 45.8981 66.0786 40.4485 70.1173 36.4303L70.4998 36.0584C74.4021 32.3639 79.9558 30.254 85.3453 30.1548H140.381L132.405 39.6774L124.429 49.1999V39.6774H113.262V73.4032H103.691V39.6774H85.3453C82.2792 39.6827 79.3143 40.8588 77.0981 42.9569L76.8854 43.1639C74.6416 45.3962 73.381 48.4237 73.381 51.5806L73.3849 51.8759C73.4608 54.9258 74.7117 57.8347 76.8854 59.9973C79.1291 62.2296 82.1724 63.4838 85.3453 63.4838H93.3215V73.0064H85.3453C79.8122 73.0064 74.4982 70.8883 70.4998 67.1028L70.1173 66.7309C66.2049 62.8384 63.9536 57.6025 63.8166 52.113L63.8096 51.5806Z" fill="white"/>
<path d="M0 56.3421L7.03395e-09 46.8195H44.949C46.0181 37.8396 50.0891 29.4223 56.5811 22.9635L56.941 22.6101C64.5335 15.2416 74.7253 11.1099 85.3452 11.1099V20.6324C77.353 20.6324 69.6778 23.6922 63.9022 29.16L63.3492 29.6971C57.5154 35.501 54.2381 43.3728 54.2381 51.5808L54.2474 52.3496C54.4452 60.279 57.6978 67.8421 63.3492 73.4646L63.9022 74.0017C69.6778 79.4693 77.353 82.5292 85.3452 82.5292V92.0518C74.7253 92.0518 64.5335 87.9198 56.941 80.5517L56.5811 80.1978C50.4796 74.1278 46.5167 66.3277 45.1744 57.9564C45.0884 57.4205 45.0133 56.8824 44.949 56.3421H0Z" fill="white"/>
<path d="M173.083 51.5806C173.083 57.263 170.814 62.7127 166.776 66.7309C162.737 70.749 157.259 73.0064 151.548 73.0064H144.369L138.786 66.658L130.012 56.3419L135.595 49.1999L151.548 30.1548C157.081 30.1548 162.394 32.2729 166.393 36.0584L166.776 36.4303C170.814 40.4485 173.083 45.8982 173.083 51.5806Z" fill="white"/>
</mask>
<g mask="url(#mask0_2044_86)">
<path d="M191.429 11.1099V92.0518H0L3.55623e-06 11.1099H191.429Z" fill="url(#paint0_linear_2044_86)"/>
</g>
</g>
<defs>
<linearGradient id="paint0_linear_2044_86" x1="194.133" y1="-46.9408" x2="95.7469" y2="129.299" gradientUnits="userSpaceOnUse">
<stop stop-color="#7E20D9"/>
<stop offset="1" stop-color="#FF20D9"/>
</linearGradient>
<clipPath id="clip0_2044_86">
<rect width="603" height="123" fill="white"/>
</clipPath>
</defs>
</svg>
