<svg width="463" height="142" viewBox="0 0 463 142" fill="none" xmlns="http://www.w3.org/2000/svg">
<path d="M44.1282 55.5738C43.7414 52.858 45.8426 50.4282 48.5781 50.4282H101.129C103.924 50.4282 106.042 52.9606 105.555 55.7214L94.8112 116.639C94.4313 118.792 92.5652 120.361 90.3846 120.361H57.256C55.019 120.361 53.1223 118.712 52.806 116.491L44.1282 55.5738Z" fill="#3ACC97"/>
<path d="M32.9584 51.3796L31.5353 39.4863H90.8334L87.9871 63.7487" stroke="black" stroke-width="4" stroke-linecap="round"/>
<path d="M88.3631 72.4591C87.273 73.8379 85.0981 73.4881 84.4926 71.8366L82.0504 65.1756C81.4577 63.5584 82.8195 61.8993 84.5159 62.1722L91.3546 63.2722C93.0509 63.5449 93.8272 65.548 92.7598 66.8981L88.3631 72.4591Z" fill="black"/>
<path d="M25.3685 29.02H44.8183M44.8183 29.02L53.8316 18.0781H69.4864L78.0253 29.02M44.8183 29.02H78.0253M97.0007 29.02H78.0253" stroke="black" stroke-width="4" stroke-linecap="round"/>
<path d="M33.1726 64.7159C33.8338 63.0858 36.0196 62.8108 37.062 64.2261L41.267 69.9345C42.2876 71.3202 41.4436 73.2956 39.7391 73.5102L32.8667 74.3752C31.1621 74.5898 29.8574 72.8849 30.5049 71.2893L33.1726 64.7159Z" fill="black"/>
<path d="M36.2794 73.7388L40.5489 110.37H47.6647" stroke="black" stroke-width="4" stroke-linecap="round"/>
<path d="M85.1411 84.6807L81.3461 110.37H63.3195" stroke="black" stroke-width="4" stroke-linecap="round"/>
<path d="M58.2733 112.228C56.7429 111.367 56.7429 109.158 58.2733 108.297L64.4447 104.824C65.9429 103.981 67.7922 105.067 67.7922 106.79V113.735C67.7922 115.458 65.9429 116.544 64.4447 115.701L58.2733 112.228Z" fill="black"/>
<path d="M164.073 4.50781H17.9806C10.5328 4.50781 4.49512 10.5626 4.49512 18.0316V123.968C4.49512 131.437 10.5328 137.492 17.9806 137.492H164.073C171.521 137.492 177.558 131.437 177.558 123.968V18.0316C177.558 10.5626 171.521 4.50781 164.073 4.50781Z" stroke="#3ACC97" stroke-width="4"/>
<path d="M445.02 5.63477H143.218C136.391 5.63477 130.856 11.185 130.856 18.0316V123.737C130.856 130.584 136.391 136.134 143.218 136.134H445.02C451.847 136.134 457.382 130.584 457.382 123.737V18.0316C457.382 11.185 451.847 5.63477 445.02 5.63477Z" fill="#3ACC97" stroke="#3ACC97" stroke-width="5"/>
<path d="M437.153 5.63477H129.235V136.365H437.153V5.63477Z" fill="#3ACC97" stroke="#3ACC97" stroke-width="5"/>
<path d="M194.447 83.24C192.739 83.24 191.255 82.8793 189.997 82.1581C188.768 81.4068 187.809 80.4 187.12 79.1377C186.461 77.8455 186.131 76.403 186.131 74.8101V55.5162H176.556V51.6844H200.021V55.5162H190.446V75.3511C190.446 76.5231 190.806 77.5 191.525 78.2812C192.274 79.0327 193.263 79.4082 194.492 79.4082H196.56V83.24H194.447ZM198.839 83.24V66.786C198.839 64.7425 199.409 63.1497 200.548 62.0076C201.716 60.8355 203.319 60.2495 205.357 60.2495H210.077V63.8108H206.122C205.133 63.8108 204.353 64.0963 203.784 64.6673C203.245 65.2384 202.975 66.0348 202.975 67.0565V83.24H198.839ZM224.328 83.7809C222.111 83.7809 220.193 83.2551 218.574 82.2031C216.956 81.1212 215.712 79.6638 214.843 77.8304C213.974 75.9973 213.54 73.9687 213.54 71.7447C213.54 69.4908 214.019 67.4622 214.978 65.659C215.937 63.8259 217.316 62.3833 219.114 61.3314C220.912 60.2495 223.07 59.7085 225.587 59.7085C228.014 59.7085 230.098 60.2346 231.835 61.2863C233.572 62.3382 234.907 63.7657 235.836 65.5689C236.795 67.372 237.274 69.3857 237.274 71.6095V83.24H233.094V78.5517H233.004C232.554 79.4233 231.941 80.2647 231.161 81.0762C230.412 81.8576 229.468 82.5038 228.329 83.0146C227.189 83.5255 225.856 83.7809 224.328 83.7809ZM225.407 80.2197C226.906 80.2197 228.223 79.859 229.363 79.1377C230.531 78.3865 231.43 77.3648 232.06 76.0723C232.718 74.7502 233.049 73.2774 233.049 71.6546C233.049 70.0619 232.734 68.6343 232.105 67.372C231.504 66.1098 230.637 65.1181 229.497 64.3968C228.358 63.6455 227.025 63.2698 225.497 63.2698C223.879 63.2698 222.485 63.6455 221.316 64.3968C220.178 65.1483 219.294 66.17 218.664 67.4622C218.065 68.7244 217.765 70.167 217.765 71.7898C217.765 73.3527 218.065 74.7801 218.664 76.0723C219.264 77.3346 220.133 78.3414 221.272 79.0927C222.41 79.8441 223.789 80.2197 225.407 80.2197ZM244.444 83.24V79.6787H255.412C256.131 79.6787 256.745 79.5286 257.255 79.2279C257.794 78.8975 258.199 78.4767 258.469 77.9657C258.738 77.4549 258.873 76.914 258.873 76.3428C258.873 75.8019 258.752 75.306 258.514 74.8552C258.273 74.3744 257.898 73.9987 257.39 73.7282C256.909 73.4278 256.324 73.2774 255.637 73.2774H251.007C249.537 73.2774 248.249 73.0372 247.141 72.5562C246.062 72.0454 245.208 71.309 244.579 70.3473C243.979 69.3857 243.68 68.2137 243.68 66.8311C243.68 65.659 243.963 64.5771 244.534 63.5854C245.102 62.5936 245.896 61.7973 246.916 61.1962C247.934 60.565 249.103 60.2495 250.422 60.2495H260.986V63.8108H250.827C249.896 63.8108 249.164 64.0963 248.624 64.6673C248.085 65.2384 247.815 65.9146 247.815 66.6958C247.815 67.4473 248.085 68.1084 248.624 68.6793C249.193 69.2203 249.986 69.4908 251.007 69.4908H255.412C257.059 69.4908 258.437 69.7612 259.547 70.3022C260.685 70.8132 261.539 71.5644 262.11 72.5562C262.708 73.5479 263.009 74.765 263.009 76.2076C263.009 77.4398 262.708 78.5968 262.11 79.6787C261.51 80.7306 260.671 81.5871 259.592 82.2482C258.543 82.9095 257.313 83.24 255.906 83.24H244.444ZM269.363 83.24V50.332H273.498V63.2247C274.426 62.0227 275.55 61.1362 276.869 60.565C278.218 59.9941 279.612 59.7085 281.05 59.7085C283.086 59.7085 284.855 60.1445 286.354 61.0158C287.851 61.8575 289.02 63.0444 289.86 64.5771C290.699 66.1098 291.119 67.8981 291.119 69.9416V83.24H286.984V69.9866C286.984 68.6043 286.669 67.4171 286.04 66.4254C285.41 65.4036 284.57 64.6222 283.522 64.0812C282.502 63.5403 281.41 63.2698 280.241 63.2698C279.072 63.2698 277.978 63.5403 276.959 64.0812C275.939 64.5922 275.101 65.3435 274.442 66.3352C273.813 67.327 273.498 68.5141 273.498 69.8965V83.24H269.363ZM314.217 83.24C312.509 83.24 311.026 82.8793 309.767 82.1581C308.54 81.4068 307.58 80.4 306.89 79.1377C306.232 77.8455 305.901 76.403 305.901 74.8101V55.5162H296.327V51.6844H319.791V55.5162H310.217V75.3511C310.217 76.5231 310.576 77.5 311.296 78.2812C312.046 79.0327 313.035 79.4082 314.262 79.4082H316.33V83.24H314.217ZM318.611 83.24V66.786C318.611 64.7425 319.18 63.1497 320.32 62.0076C321.488 60.8355 323.091 60.2495 325.129 60.2495H329.849V63.8108H325.894C324.905 63.8108 324.125 64.0963 323.556 64.6673C323.017 65.2384 322.747 66.0348 322.747 67.0565V83.24H318.611ZM344.099 83.7809C341.881 83.7809 339.963 83.2551 338.345 82.2031C336.727 81.1212 335.484 79.6638 334.614 77.8304C333.744 75.9973 333.311 73.9687 333.311 71.7447C333.311 69.4908 333.789 67.4622 334.749 65.659C335.709 63.8259 337.086 62.3833 338.885 61.3314C340.683 60.2495 342.84 59.7085 345.358 59.7085C347.785 59.7085 349.868 60.2346 351.606 61.2863C353.343 62.3382 354.678 63.7657 355.606 65.5689C356.566 67.372 357.045 69.3857 357.045 71.6095V83.24H352.864V78.5517H352.774C352.325 79.4233 351.711 80.2647 350.932 81.0762C350.183 81.8576 349.239 82.5038 348.1 83.0146C346.96 83.5255 345.627 83.7809 344.099 83.7809ZM345.178 80.2197C346.677 80.2197 347.994 79.859 349.133 79.1377C350.302 78.3865 351.201 77.3648 351.831 76.0723C352.489 74.7502 352.819 73.2774 352.819 71.6546C352.819 70.0619 352.505 68.6343 351.875 67.372C351.275 66.1098 350.408 65.1181 349.268 64.3968C348.129 63.6455 346.796 63.2698 345.268 63.2698C343.649 63.2698 342.256 63.6455 341.087 64.3968C339.948 65.1483 339.064 66.17 338.435 67.4622C337.835 68.7244 337.536 70.167 337.536 71.7898C337.536 73.3527 337.835 74.7801 338.435 76.0723C339.035 77.3346 339.903 78.3414 341.042 79.0927C342.182 79.8441 343.559 80.2197 345.178 80.2197ZM375.632 83.24C373.263 83.24 371.151 82.7292 369.294 81.7073C367.435 80.6855 365.968 79.3181 364.889 77.605C363.81 75.8621 363.271 73.9085 363.271 71.7447C363.271 69.5809 363.81 67.6425 364.889 65.9295C365.968 64.1865 367.435 62.8041 369.294 61.7822C371.151 60.7605 373.263 60.2495 375.632 60.2495H378.329V63.8108H375.497C373.969 63.8108 372.589 64.1714 371.362 64.8927C370.162 65.584 369.204 66.5306 368.485 67.7327C367.795 68.9349 367.451 70.2722 367.451 71.7447C367.451 73.2175 367.795 74.5548 368.485 75.7568C369.204 76.9591 370.162 77.9206 371.362 78.6419C372.589 79.3332 373.969 79.6787 375.497 79.6787H378.329V83.24H375.632ZM383.953 83.24V50.332H388.088V69.8965H394.382L400.405 60.2495H404.99L398.472 70.5276C400.63 71.1587 402.309 72.3459 403.507 74.0889C404.736 75.8019 405.35 77.8005 405.35 80.0844V83.24H401.169V80.0844C401.169 78.8222 400.884 77.6952 400.315 76.7035C399.776 75.7117 399.012 74.9305 398.023 74.3593C397.034 73.7584 395.894 73.4577 394.606 73.4577H388.088V83.24H383.953Z" fill="black"/>
</svg>
